<?xml version="1.0" encoding="UTF-8" standalone="no"?>
<svg width="18px" height="16px" viewBox="0 0 18 16" version="1.1" xmlns="http://www.w3.org/2000/svg" xmlns:xlink="http://www.w3.org/1999/xlink">
    <!-- Generator: sketchtool 40 (33762) - http://www.bohemiancoding.com/sketch -->
    <title>4AE1F5A4-B6D9-4FB0-B2D0-F8D29F1BEE0F</title>
    <desc>Created with sketchtool.</desc>
    <defs></defs>
    <g id="Page-1" stroke="none" stroke-width="1" fill="none" fill-rule="evenodd">
        <g id="Blog-Page" transform="translate(-854.000000, -147.000000)" fill="#8B8B8B">
            <path d="M872,162.088938 L864.022198,156.462685 C864.636503,155.574866 865.000396,154.499834 865.000396,153.339858 C865.000396,150.307071 862.532986,147.84 859.500198,147.84 C856.46741,147.84 854,150.307071 854,153.339858 C854,156.372646 856.46741,158.840057 859.500198,158.840057 C861.191234,158.840057 862.70423,158.072856 863.714027,156.867691 L871.706778,162.504477 L872,162.088938 Z M859.500198,158.330401 C856.74874,158.330401 854.509655,156.091317 854.509655,153.339858 C854.509655,150.5884 856.74874,148.349655 859.500198,148.349655 C862.251656,148.349655 864.490741,150.5884 864.490741,153.339858 C864.490741,156.091317 862.251656,158.330401 859.500198,158.330401 L859.500198,158.330401 Z" id="ico_search"></path>
        </g>
    </g>
</svg>