<?xml version="1.0" encoding="utf-8"?>
<!-- Generator: Adobe Illustrator 19.2.1, SVG Export Plug-In . SVG Version: 6.00 Build 0)  -->
<svg version="1.1" id="Layer_1" xmlns="http://www.w3.org/2000/svg" xmlns:xlink="http://www.w3.org/1999/xlink" x="0px" y="0px"
	 viewBox="0 0 75 75" style="enable-background:new 0 0 75 75;" xml:space="preserve">
<style type="text/css">
	.st0{fill:#E87B14;}
</style>
<g>
	<path class="st0" d="M37.5,58.6c-7.1-9.6-16.2-24-16.2-30.3c0-8.9,7.3-16.2,16.2-16.2c8.9,0,16.2,7.3,16.2,16.2
		C53.7,34.6,44.6,49,37.5,58.6z M37.5,5.7C25,5.7,14.8,15.9,14.8,28.4c0,11.5,18.1,35,20.1,37.6l2.6,3.3l2.6-3.3
		c2.1-2.6,20.1-26.1,20.1-37.6C60.2,15.9,50,5.7,37.5,5.7z"/>
	<path class="st0" d="M37.5,31.6c-1.8,0-3.2-1.5-3.2-3.2c0-1.8,1.5-3.2,3.2-3.2s3.2,1.5,3.2,3.2C40.7,30.2,39.3,31.6,37.5,31.6z
		 M37.5,18.7c-5.4,0-9.7,4.4-9.7,9.7c0,5.4,4.4,9.7,9.7,9.7s9.7-4.4,9.7-9.7C47.2,23,42.9,18.7,37.5,18.7z"/>
</g>
</svg>
