<?xml version="1.0" encoding="utf-8"?>
<!-- Generator: Adobe Illustrator 19.2.1, SVG Export Plug-In . SVG Version: 6.00 Build 0)  -->
<svg version="1.1" id="Layer_1" xmlns="http://www.w3.org/2000/svg" xmlns:xlink="http://www.w3.org/1999/xlink" x="0px" y="0px"
	 viewBox="0 0 75 75" style="enable-background:new 0 0 75 75;" xml:space="preserve">
<style type="text/css">
	.st0{fill:#E87B14;}
</style>
<path class="st0" d="M66,40.5H54v-12h12V40.5z M66,55.5H54v-12h12V55.5z M66,70.5H54v-12h12V70.5z M51,40.5H39v-12h12V40.5z
	 M51,55.5H39v-12h12V55.5z M51,70.5H39v-12h12V70.5z M36,40.5H24v-12h12V40.5z M36,55.5H24v-12h12V55.5z M36,70.5H24v-12h12V70.5z
	 M21,40.5H9v-12h12V40.5z M21,55.5H9v-12h12V55.5z M21,70.5H9v-12h12V70.5z M4.5,24v44.9c0,3.4,2.7,6.1,6,6.1h54c3.3,0,6-2.7,6-6.1
	V24H4.5z"/>
<path class="st0" d="M52.5,19.5c-2.5,0-4.5-2-4.5-4.5c0-1.7,0.9-3.1,2.2-3.9V15c0,1.2,1,2.2,2.2,2.2s2.2-1,2.2-2.2v-3.9
	c1.3,0.8,2.2,2.2,2.2,3.9C57,17.5,55,19.5,52.5,19.5z M22.5,19.5c-2.5,0-4.5-2-4.5-4.5c0-1.7,0.9-3.1,2.2-3.9V15
	c0,1.2,1,2.2,2.2,2.2s2.2-1,2.2-2.2v-3.9c1.3,0.8,2.2,2.2,2.2,3.9C27,17.5,25,19.5,22.5,19.5z M64.5,9h-9.8V2.2c0-1.2-1-2.2-2.2-2.2
	s-2.2,1-2.2,2.2V9H24.8V2.2c0-1.2-1-2.2-2.2-2.2s-2.2,1-2.2,2.2V9h-9.8c-3.3,0-6,2.7-6,6.1V21h66v-5.9C70.5,11.7,67.8,9,64.5,9z"/>
</svg>
